<?xml version="1.0" encoding="UTF-8" standalone="no"?>
<svg
   xmlns:dc="http://purl.org/dc/elements/1.1/"
   xmlns:cc="http://creativecommons.org/ns#"
   xmlns:rdf="http://www.w3.org/1999/02/22-rdf-syntax-ns#"
   xmlns:svg="http://www.w3.org/2000/svg"
   xmlns="http://www.w3.org/2000/svg"
   xmlns:sodipodi="http://sodipodi.sourceforge.net/DTD/sodipodi-0.dtd"
   xmlns:inkscape="http://www.inkscape.org/namespaces/inkscape"
   version="1.1"
   xml:space="preserve"
   width="300px"
   height="300px"
   viewBox="0 0 300 300"
   id="svg967"
   sodipodi:docname="s2.svg"
   inkscape:version="1.0.2 (e86c8708, 2021-01-15)"><metadata
   id="metadata973"><rdf:RDF><cc:Work
       rdf:about=""><dc:format>image/svg+xml</dc:format><dc:type
         rdf:resource="http://purl.org/dc/dcmitype/StillImage" /><dc:title></dc:title></cc:Work></rdf:RDF></metadata><defs
   id="defs971" /><sodipodi:namedview
   pagecolor="#ffffff"
   bordercolor="#666666"
   borderopacity="1"
   objecttolerance="10"
   gridtolerance="10"
   guidetolerance="10"
   inkscape:pageopacity="0"
   inkscape:pageshadow="2"
   inkscape:window-width="802"
   inkscape:window-height="480"
   id="namedview969"
   showgrid="false"
   inkscape:zoom="0.82915958"
   inkscape:cx="150"
   inkscape:cy="150"
   inkscape:window-x="0"
   inkscape:window-y="23"
   inkscape:window-maximized="0"
   inkscape:current-layer="svg967" />
<!-- END OF HEADER -->
<rect
   style="opacity:1.0;fill:#FFFFFF;stroke:none"
   width="300"
   height="300"
   x="0"
   y="0"
   id="rect833"> </rect>
<path
   class="bond-0 atom-0 atom-1"
   d="M 199.166,211.53 L 188.417,204.552"
   style="fill:none;fill-rule:evenodd;stroke:#FF0000;stroke-width:2.0px;stroke-linecap:butt;stroke-linejoin:miter;stroke-opacity:1"
   id="path835" />
<path
   class="bond-0 atom-0 atom-1"
   d="M 188.417,204.552 L 177.668,197.574"
   style="fill:none;fill-rule:evenodd;stroke:#000000;stroke-width:2.0px;stroke-linecap:butt;stroke-linejoin:miter;stroke-opacity:1"
   id="path837" />
<path
   class="bond-0 atom-0 atom-1"
   d="M 195.742,216.805 L 184.993,209.827"
   style="fill:none;fill-rule:evenodd;stroke:#FF0000;stroke-width:2.0px;stroke-linecap:butt;stroke-linejoin:miter;stroke-opacity:1"
   id="path839" />
<path
   class="bond-0 atom-0 atom-1"
   d="M 184.993,209.827 L 174.244,202.849"
   style="fill:none;fill-rule:evenodd;stroke:#000000;stroke-width:2.0px;stroke-linecap:butt;stroke-linejoin:miter;stroke-opacity:1"
   id="path841" />
<path
   class="bond-1 atom-1 atom-2"
   d="M 175.956,200.212 L 176.634,187.226"
   style="fill:none;fill-rule:evenodd;stroke:#000000;stroke-width:2.0px;stroke-linecap:butt;stroke-linejoin:miter;stroke-opacity:1"
   id="path843" />
<path
   class="bond-1 atom-1 atom-2"
   d="M 176.634,187.226 L 177.312,174.24"
   style="fill:none;fill-rule:evenodd;stroke:#FF0000;stroke-width:2.0px;stroke-linecap:butt;stroke-linejoin:miter;stroke-opacity:1"
   id="path845" />
<path
   class="bond-24 atom-1 atom-25"
   d="M 175.956,200.212 L 147.944,214.491"
   style="fill:none;fill-rule:evenodd;stroke:#000000;stroke-width:2.0px;stroke-linecap:butt;stroke-linejoin:miter;stroke-opacity:1"
   id="path847" />
<path
   class="bond-2 atom-3 atom-2"
   d="M 200.694,156.333 L 201.266,157.453"
   style="fill:none;fill-rule:evenodd;stroke:#000000;stroke-width:1.0px;stroke-linecap:butt;stroke-linejoin:miter;stroke-opacity:1"
   id="path849" />
<path
   class="bond-2 atom-3 atom-2"
   d="M 195.781,158.131 L 196.923,160.372"
   style="fill:none;fill-rule:evenodd;stroke:#000000;stroke-width:1.0px;stroke-linecap:butt;stroke-linejoin:miter;stroke-opacity:1"
   id="path851" />
<path
   class="bond-2 atom-3 atom-2"
   d="M 190.868,159.93 L 192.581,163.292"
   style="fill:none;fill-rule:evenodd;stroke:#FF0000;stroke-width:1.0px;stroke-linecap:butt;stroke-linejoin:miter;stroke-opacity:1"
   id="path853" />
<path
   class="bond-2 atom-3 atom-2"
   d="M 185.954,161.729 L 188.239,166.211"
   style="fill:none;fill-rule:evenodd;stroke:#FF0000;stroke-width:1.0px;stroke-linecap:butt;stroke-linejoin:miter;stroke-opacity:1"
   id="path855" />
<path
   class="bond-2 atom-3 atom-2"
   d="M 181.041,163.527 L 183.897,169.13"
   style="fill:none;fill-rule:evenodd;stroke:#FF0000;stroke-width:1.0px;stroke-linecap:butt;stroke-linejoin:miter;stroke-opacity:1"
   id="path857" />
<path
   class="bond-3 atom-3 atom-4"
   d="M 205.608,154.534 L 207.248,123.135"
   style="fill:none;fill-rule:evenodd;stroke:#000000;stroke-width:2.0px;stroke-linecap:butt;stroke-linejoin:miter;stroke-opacity:1"
   id="path859" />
<path
   class="bond-28 atom-9 atom-3"
   d="M 231.98,171.654 L 205.608,154.534"
   style="fill:none;fill-rule:evenodd;stroke:#000000;stroke-width:2.0px;stroke-linecap:butt;stroke-linejoin:miter;stroke-opacity:1"
   id="path861" />
<path
   class="bond-4 atom-4 atom-5"
   d="M 207.248,123.135 L 235.26,108.856"
   style="fill:none;fill-rule:evenodd;stroke:#000000;stroke-width:2.0px;stroke-linecap:butt;stroke-linejoin:miter;stroke-opacity:1"
   id="path863" />
<path
   class="bond-30 atom-13 atom-4"
   d="M 180.876,106.016 L 207.248,123.135"
   style="fill:none;fill-rule:evenodd;stroke:#000000;stroke-width:2.0px;stroke-linecap:butt;stroke-linejoin:miter;stroke-opacity:1"
   id="path865" />
<path
   class="bond-31 atom-4 atom-29"
   d="M 207.248,123.135 L 182.078,132.437 L 184.933,138.039 Z"
   style="fill:#000000;fill-rule:evenodd;fill-opacity:1;stroke:#000000;stroke-width:2.0px;stroke-linecap:butt;stroke-linejoin:miter;stroke-opacity:1;"
   id="path867" />
<path
   class="bond-5 atom-5 atom-6"
   d="M 235.26,108.856 L 261.632,125.976"
   style="fill:none;fill-rule:evenodd;stroke:#000000;stroke-width:2.0px;stroke-linecap:butt;stroke-linejoin:miter;stroke-opacity:1"
   id="path869" />
<path
   class="bond-5 atom-5 atom-6"
   d="M 235.792,116.699 L 254.252,128.682"
   style="fill:none;fill-rule:evenodd;stroke:#000000;stroke-width:2.0px;stroke-linecap:butt;stroke-linejoin:miter;stroke-opacity:1"
   id="path871" />
<path
   class="bond-9 atom-5 atom-10"
   d="M 235.26,108.856 L 236.9,77.4577"
   style="fill:none;fill-rule:evenodd;stroke:#000000;stroke-width:2.0px;stroke-linecap:butt;stroke-linejoin:miter;stroke-opacity:1"
   id="path873" />
<path
   class="bond-6 atom-6 atom-7"
   d="M 261.632,125.976 L 259.992,157.374"
   style="fill:none;fill-rule:evenodd;stroke:#000000;stroke-width:2.0px;stroke-linecap:butt;stroke-linejoin:miter;stroke-opacity:1"
   id="path875" />
<path
   class="bond-7 atom-7 atom-8"
   d="M 264.102,160.667 L 264.672,159.788"
   style="fill:none;fill-rule:evenodd;stroke:#000000;stroke-width:1.0px;stroke-linecap:butt;stroke-linejoin:miter;stroke-opacity:1"
   id="path877" />
<path
   class="bond-7 atom-7 atom-8"
   d="M 268.212,163.96 L 269.353,162.202"
   style="fill:none;fill-rule:evenodd;stroke:#000000;stroke-width:1.0px;stroke-linecap:butt;stroke-linejoin:miter;stroke-opacity:1"
   id="path879" />
<path
   class="bond-7 atom-7 atom-8"
   d="M 272.322,167.253 L 274.034,164.616"
   style="fill:none;fill-rule:evenodd;stroke:#000000;stroke-width:1.0px;stroke-linecap:butt;stroke-linejoin:miter;stroke-opacity:1"
   id="path881" />
<path
   class="bond-7 atom-7 atom-8"
   d="M 276.432,170.546 L 278.714,167.029"
   style="fill:none;fill-rule:evenodd;stroke:#000000;stroke-width:1.0px;stroke-linecap:butt;stroke-linejoin:miter;stroke-opacity:1"
   id="path883" />
<path
   class="bond-7 atom-7 atom-8"
   d="M 280.542,173.838 L 283.395,169.443"
   style="fill:none;fill-rule:evenodd;stroke:#000000;stroke-width:1.0px;stroke-linecap:butt;stroke-linejoin:miter;stroke-opacity:1"
   id="path885" />
<path
   class="bond-7 atom-7 atom-8"
   d="M 284.652,177.131 L 288.076,171.857"
   style="fill:none;fill-rule:evenodd;stroke:#000000;stroke-width:1.0px;stroke-linecap:butt;stroke-linejoin:miter;stroke-opacity:1"
   id="path887" />
<path
   class="bond-8 atom-7 atom-9"
   d="M 259.992,157.374 L 231.98,171.654"
   style="fill:none;fill-rule:evenodd;stroke:#000000;stroke-width:2.0px;stroke-linecap:butt;stroke-linejoin:miter;stroke-opacity:1"
   id="path889" />
<path
   class="bond-10 atom-10 atom-11"
   d="M 236.9,77.4577 L 210.528,60.3381"
   style="fill:none;fill-rule:evenodd;stroke:#000000;stroke-width:2.0px;stroke-linecap:butt;stroke-linejoin:miter;stroke-opacity:1"
   id="path891" />
<path
   class="bond-10 atom-10 atom-11"
   d="M 229.52,80.1641 L 211.06,68.1804"
   style="fill:none;fill-rule:evenodd;stroke:#000000;stroke-width:2.0px;stroke-linecap:butt;stroke-linejoin:miter;stroke-opacity:1"
   id="path893" />
<path
   class="bond-11 atom-11 atom-12"
   d="M 210.528,60.3381 L 182.516,74.6171"
   style="fill:none;fill-rule:evenodd;stroke:#000000;stroke-width:2.0px;stroke-linecap:butt;stroke-linejoin:miter;stroke-opacity:1"
   id="path895" />
<path
   class="bond-12 atom-12 atom-13"
   d="M 182.516,74.6171 L 180.876,106.016"
   style="fill:none;fill-rule:evenodd;stroke:#000000;stroke-width:2.0px;stroke-linecap:butt;stroke-linejoin:miter;stroke-opacity:1"
   id="path897" />
<path
   class="bond-23 atom-12 atom-24"
   d="M 182.516,74.6171 L 157.856,54.8603 L 154.432,60.1347 Z"
   style="fill:#000000;fill-rule:evenodd;fill-opacity:1;stroke:#000000;stroke-width:2.0px;stroke-linecap:butt;stroke-linejoin:miter;stroke-opacity:1;"
   id="path899" />
<path
   class="bond-13 atom-13 atom-14"
   d="M 180.876,106.016 L 151.436,117.493 L 154.292,123.096 Z"
   style="fill:#000000;fill-rule:evenodd;fill-opacity:1;stroke:#000000;stroke-width:2.0px;stroke-linecap:butt;stroke-linejoin:miter;stroke-opacity:1;"
   id="path901" />
<path
   class="bond-14 atom-14 atom-15"
   d="M 152.864,120.295 L 126.492,103.175"
   style="fill:none;fill-rule:evenodd;stroke:#000000;stroke-width:2.0px;stroke-linecap:butt;stroke-linejoin:miter;stroke-opacity:1"
   id="path903" />
<path
   class="bond-15 atom-16 atom-15"
   d="M 103.386,115.541 L 102.91,114.607"
   style="fill:none;fill-rule:evenodd;stroke:#000000;stroke-width:1.0px;stroke-linecap:butt;stroke-linejoin:miter;stroke-opacity:1"
   id="path905" />
<path
   class="bond-15 atom-16 atom-15"
   d="M 108.293,113.628 L 107.341,111.761"
   style="fill:none;fill-rule:evenodd;stroke:#000000;stroke-width:1.0px;stroke-linecap:butt;stroke-linejoin:miter;stroke-opacity:1"
   id="path907" />
<path
   class="bond-15 atom-16 atom-15"
   d="M 113.2,111.715 L 111.772,108.914"
   style="fill:none;fill-rule:evenodd;stroke:#000000;stroke-width:1.0px;stroke-linecap:butt;stroke-linejoin:miter;stroke-opacity:1"
   id="path909" />
<path
   class="bond-15 atom-16 atom-15"
   d="M 118.106,109.802 L 116.202,106.067"
   style="fill:none;fill-rule:evenodd;stroke:#000000;stroke-width:1.0px;stroke-linecap:butt;stroke-linejoin:miter;stroke-opacity:1"
   id="path911" />
<path
   class="bond-15 atom-16 atom-15"
   d="M 123.013,107.889 L 120.633,103.221"
   style="fill:none;fill-rule:evenodd;stroke:#000000;stroke-width:1.0px;stroke-linecap:butt;stroke-linejoin:miter;stroke-opacity:1"
   id="path913" />
<path
   class="bond-15 atom-16 atom-15"
   d="M 127.92,105.976 L 125.064,100.374"
   style="fill:none;fill-rule:evenodd;stroke:#000000;stroke-width:1.0px;stroke-linecap:butt;stroke-linejoin:miter;stroke-opacity:1"
   id="path915" />
<path
   class="bond-16 atom-16 atom-17"
   d="M 98.4797,117.454 L 87.7304,110.476"
   style="fill:none;fill-rule:evenodd;stroke:#000000;stroke-width:2.0px;stroke-linecap:butt;stroke-linejoin:miter;stroke-opacity:1"
   id="path917" />
<path
   class="bond-16 atom-16 atom-17"
   d="M 87.7304,110.476 L 76.9812,103.498"
   style="fill:none;fill-rule:evenodd;stroke:#FF0000;stroke-width:2.0px;stroke-linecap:butt;stroke-linejoin:miter;stroke-opacity:1"
   id="path919" />
<path
   class="bond-29 atom-23 atom-16"
   d="M 96.8397,148.853 L 98.4797,117.454"
   style="fill:none;fill-rule:evenodd;stroke:#000000;stroke-width:2.0px;stroke-linecap:butt;stroke-linejoin:miter;stroke-opacity:1"
   id="path921" />
<path
   class="bond-17 atom-17 atom-18"
   d="M 67.2343,102.819 L 55.665,108.716"
   style="fill:none;fill-rule:evenodd;stroke:#FF0000;stroke-width:2.0px;stroke-linecap:butt;stroke-linejoin:miter;stroke-opacity:1"
   id="path923" />
<path
   class="bond-17 atom-17 atom-18"
   d="M 55.665,108.716 L 44.0957,114.614"
   style="fill:none;fill-rule:evenodd;stroke:#000000;stroke-width:2.0px;stroke-linecap:butt;stroke-linejoin:miter;stroke-opacity:1"
   id="path925" />
<path
   class="bond-18 atom-18 atom-19"
   d="M 45.8077,111.976 L 35.0584,104.998"
   style="fill:none;fill-rule:evenodd;stroke:#000000;stroke-width:2.0px;stroke-linecap:butt;stroke-linejoin:miter;stroke-opacity:1"
   id="path927" />
<path
   class="bond-18 atom-18 atom-19"
   d="M 35.0584,104.998 L 24.3091,98.0203"
   style="fill:none;fill-rule:evenodd;stroke:#FF0000;stroke-width:2.0px;stroke-linecap:butt;stroke-linejoin:miter;stroke-opacity:1"
   id="path929" />
<path
   class="bond-18 atom-18 atom-19"
   d="M 42.3838,117.251 L 31.6345,110.273"
   style="fill:none;fill-rule:evenodd;stroke:#000000;stroke-width:2.0px;stroke-linecap:butt;stroke-linejoin:miter;stroke-opacity:1"
   id="path931" />
<path
   class="bond-18 atom-18 atom-19"
   d="M 31.6345,110.273 L 20.8852,103.295"
   style="fill:none;fill-rule:evenodd;stroke:#FF0000;stroke-width:2.0px;stroke-linecap:butt;stroke-linejoin:miter;stroke-opacity:1"
   id="path933" />
<path
   class="bond-19 atom-18 atom-20"
   d="M 44.0957,114.614 L 42.4557,146.012"
   style="fill:none;fill-rule:evenodd;stroke:#000000;stroke-width:2.0px;stroke-linecap:butt;stroke-linejoin:miter;stroke-opacity:1"
   id="path935" />
<path
   class="bond-20 atom-20 atom-21"
   d="M 42.4557,146.012 L 68.8277,163.132"
   style="fill:none;fill-rule:evenodd;stroke:#000000;stroke-width:2.0px;stroke-linecap:butt;stroke-linejoin:miter;stroke-opacity:1"
   id="path937" />
<path
   class="bond-21 atom-21 atom-22"
   d="M 68.8277,163.132 L 66.5759,176.105 L 69.7157,176.269 Z"
   style="fill:#000000;fill-rule:evenodd;fill-opacity:1;stroke:#000000;stroke-width:2.0px;stroke-linecap:butt;stroke-linejoin:miter;stroke-opacity:1;"
   id="path939" />
<path
   class="bond-21 atom-21 atom-22"
   d="M 66.5759,176.105 L 70.6038,189.406 L 64.324,189.078 Z"
   style="fill:#FF0000;fill-rule:evenodd;fill-opacity:1;stroke:#FF0000;stroke-width:2.0px;stroke-linecap:butt;stroke-linejoin:miter;stroke-opacity:1;"
   id="path941" />
<path
   class="bond-21 atom-21 atom-22"
   d="M 66.5759,176.105 L 69.7157,176.269 L 70.6038,189.406 Z"
   style="fill:#FF0000;fill-rule:evenodd;fill-opacity:1;stroke:#FF0000;stroke-width:2.0px;stroke-linecap:butt;stroke-linejoin:miter;stroke-opacity:1;"
   id="path943" />
<path
   class="bond-22 atom-21 atom-23"
   d="M 68.8277,163.132 L 96.8397,148.853"
   style="fill:none;fill-rule:evenodd;stroke:#000000;stroke-width:2.0px;stroke-linecap:butt;stroke-linejoin:miter;stroke-opacity:1"
   id="path945" />
<path
   class="bond-25 atom-25 atom-26"
   d="M 147.944,214.491 L 162.223,242.503"
   style="fill:none;fill-rule:evenodd;stroke:#000000;stroke-width:2.0px;stroke-linecap:butt;stroke-linejoin:miter;stroke-opacity:1"
   id="path947" />
<path
   class="bond-26 atom-25 atom-27"
   d="M 147.944,214.491 L 133.665,186.479"
   style="fill:none;fill-rule:evenodd;stroke:#000000;stroke-width:2.0px;stroke-linecap:butt;stroke-linejoin:miter;stroke-opacity:1"
   id="path949" />
<path
   class="bond-27 atom-25 atom-28"
   d="M 147.944,214.491 L 119.932,228.77"
   style="fill:none;fill-rule:evenodd;stroke:#000000;stroke-width:2.0px;stroke-linecap:butt;stroke-linejoin:miter;stroke-opacity:1"
   id="path951" />
<path
   class="atom-0"
   d="M 198.24 217.356 Q 198.24 215.218, 199.297 214.023 Q 200.353 212.829, 202.328 212.829 Q 204.302 212.829, 205.359 214.023 Q 206.415 215.218, 206.415 217.356 Q 206.415 219.519, 205.346 220.752 Q 204.277 221.972, 202.328 221.972 Q 200.366 221.972, 199.297 220.752 Q 198.24 219.532, 198.24 217.356 M 202.328 220.966 Q 203.686 220.966, 204.415 220.06 Q 205.157 219.142, 205.157 217.356 Q 205.157 215.608, 204.415 214.728 Q 203.686 213.835, 202.328 213.835 Q 200.969 213.835, 200.227 214.715 Q 199.498 215.596, 199.498 217.356 Q 199.498 219.155, 200.227 220.06 Q 200.969 220.966, 202.328 220.966 "
   fill="#FF0000"
   id="path953" />
<path
   class="atom-2"
   d="M 173.508 168.838 Q 173.508 166.7, 174.565 165.505 Q 175.621 164.31, 177.596 164.31 Q 179.57 164.31, 180.627 165.505 Q 181.683 166.7, 181.683 168.838 Q 181.683 171.001, 180.614 172.234 Q 179.545 173.454, 177.596 173.454 Q 175.634 173.454, 174.565 172.234 Q 173.508 171.014, 173.508 168.838 M 177.596 172.448 Q 178.954 172.448, 179.683 171.542 Q 180.425 170.624, 180.425 168.838 Q 180.425 167.09, 179.683 166.21 Q 178.954 165.317, 177.596 165.317 Q 176.237 165.317, 175.495 166.197 Q 174.766 167.077, 174.766 168.838 Q 174.766 170.637, 175.495 171.542 Q 176.237 172.448, 177.596 172.448 "
   fill="#FF0000"
   id="path955" />
<path
   class="atom-17"
   d="M 68.0203 100.36 Q 68.0203 98.2216, 69.0768 97.0269 Q 70.1332 95.8321, 72.1077 95.8321 Q 74.0823 95.8321, 75.1387 97.0269 Q 76.1951 98.2216, 76.1951 100.36 Q 76.1951 102.523, 75.1261 103.755 Q 74.0571 104.975, 72.1077 104.975 Q 70.1458 104.975, 69.0768 103.755 Q 68.0203 102.535, 68.0203 100.36 M 72.1077 103.969 Q 73.466 103.969, 74.1954 103.064 Q 74.9375 102.146, 74.9375 100.36 Q 74.9375 98.6115, 74.1954 97.7311 Q 73.466 96.8382, 72.1077 96.8382 Q 70.7495 96.8382, 70.0074 97.7186 Q 69.278 98.5989, 69.278 100.36 Q 69.278 102.158, 70.0074 103.064 Q 70.7495 103.969, 72.1077 103.969 "
   fill="#FF0000"
   id="path957" />
<path
   class="atom-19"
   d="M 13.6364 97.5191 Q 13.6364 95.381, 14.6928 94.1863 Q 15.7492 92.9915, 17.7237 92.9915 Q 19.6983 92.9915, 20.7547 94.1863 Q 21.8111 95.381, 21.8111 97.5191 Q 21.8111 99.6822, 20.7421 100.915 Q 19.6731 102.135, 17.7237 102.135 Q 15.7618 102.135, 14.6928 100.915 Q 13.6364 99.6948, 13.6364 97.5191 M 17.7237 101.129 Q 19.082 101.129, 19.8115 100.223 Q 20.5535 99.3049, 20.5535 97.5191 Q 20.5535 95.7709, 19.8115 94.8906 Q 19.082 93.9976, 17.7237 93.9976 Q 16.3655 93.9976, 15.6235 94.878 Q 14.894 95.7583, 14.894 97.5191 Q 14.894 99.3175, 15.6235 100.223 Q 16.3655 101.129, 17.7237 101.129 "
   fill="#FF0000"
   id="path959" />
<path
   class="atom-22"
   d="M 63.1003 194.555 Q 63.1003 192.417, 64.1567 191.223 Q 65.2132 190.028, 67.1877 190.028 Q 69.1622 190.028, 70.2186 191.223 Q 71.2751 192.417, 71.2751 194.555 Q 71.2751 196.719, 70.2061 197.951 Q 69.137 199.171, 67.1877 199.171 Q 65.2257 199.171, 64.1567 197.951 Q 63.1003 196.731, 63.1003 194.555 M 67.1877 198.165 Q 68.5459 198.165, 69.2754 197.259 Q 70.0174 196.341, 70.0174 194.555 Q 70.0174 192.807, 69.2754 191.927 Q 68.5459 191.034, 67.1877 191.034 Q 65.8294 191.034, 65.0874 191.914 Q 64.3579 192.795, 64.3579 194.555 Q 64.3579 196.354, 65.0874 197.259 Q 65.8294 198.165, 67.1877 198.165 "
   fill="#FF0000"
   id="path961" />
<path
   class="atom-22"
   d="M 72.3441 190.129 L 73.5514 190.129 L 73.5514 193.914 L 78.1041 193.914 L 78.1041 190.129 L 79.3115 190.129 L 79.3115 199.033 L 78.1041 199.033 L 78.1041 194.92 L 73.5514 194.92 L 73.5514 199.033 L 72.3441 199.033 L 72.3441 190.129 "
   fill="#FF0000"
   id="path963" />
<path
   class="atom-29"
   d="M 175.752 132.962 L 176.959 132.962 L 176.959 136.748 L 181.512 136.748 L 181.512 132.962 L 182.719 132.962 L 182.719 141.866 L 181.512 141.866 L 181.512 137.754 L 176.959 137.754 L 176.959 141.866 L 175.752 141.866 L 175.752 132.962 "
   fill="#000000"
   id="path965" />
</svg>
